<?xml version="1.0" encoding="UTF-8" standalone="no"?>
<svg width="100px" height="80px" viewBox="0 0 100 80" version="1.1" xmlns="http://www.w3.org/2000/svg" xmlns:xlink="http://www.w3.org/1999/xlink">
    <!-- Generator: Sketch 47.1 (45422) - http://www.bohemiancoding.com/sketch -->
    <title>Artboard</title>
    <desc>Created with Sketch.</desc>
    <defs>
        <polygon id="path-1" points="0.0685714286 16 16 16 16 0 0.0685714286 0"></polygon>
        <polygon id="path-3" points="0.0129032258 0.0425531915 0.0129032258 19.7874468 19.9739785 19.7874468 19.9739785 0.0425531915 0.0129032258 0.0425531915"></polygon>
        <polygon id="path-5" points="0.0129032258 0.0425531915 0.0129032258 19.7874468 19.9739785 19.7874468 19.9739785 0.0425531915 0.0129032258 0.0425531915"></polygon>
        <polygon id="path-7" points="16 6.81059375 16 13.55875 0.00375 13.55875 0.00375 0.0624375 16 0.0624375"></polygon>
        <polygon id="path-9" points="0.0137142857 0.0797714286 0.0137142857 13.4857143 15.9542857 13.4857143 15.9542857 0.0797714286 0.0137142857 0.0797714286"></polygon>
        <polygon id="path-11" points="8.53404545 0.163636364 0.0490909091 0.163636364 0.0490909091 17.1826364 17.019 17.1826364 17.019 0.163636364"></polygon>
        <polygon id="path-13" points="5.81225 16 11.6245 16 11.6245 0 0 0 0 8 0 16"></polygon>
        <polygon id="path-15" points="7.91668085 0.00680851064 0.010212766 0.00680851064 0.010212766 15.8299574 15.8231489 15.8299574 15.8231489 0.00680851064"></polygon>
    </defs>
    <g id="Page-1" stroke="none" stroke-width="1" fill="none" fill-rule="evenodd">
        <g id="Artboard">
            <g id="searching-magnifying-glass" transform="translate(22.000000, 2.000000)">
                <mask id="mask-2" fill="white">
                    <use xlink:href="#path-1"></use>
                </mask>
                <g id="Clip-2"></g>
                <path d="M11.4285714,10.0582857 L10.696,10.0582857 L10.424,9.78171429 C11.3394286,8.77714286 11.8834286,7.40571429 11.8834286,5.94171429 C11.8834286,2.65142857 9.232,0 5.94171429,0 C2.65142857,0 0,2.65142857 0,5.94171429 C0,9.232 2.65142857,11.8834286 5.94171429,11.8834286 C7.40571429,11.8834286 8.77714286,11.3394286 9.78171429,10.424 L10.0582857,10.696 L10.0582857,11.4285714 L14.6297143,16 L16,14.6297143 L11.4285714,10.0582857 Z M5.94171429,10.0582857 C3.656,10.0582857 1.83085714,8.22742857 1.83085714,5.94171429 C1.83085714,3.656 3.656,1.83085714 5.94171429,1.83085714 C8.22742857,1.83085714 10.0582857,3.656 10.0582857,5.94171429 C10.0582857,8.22742857 8.22742857,10.0582857 5.94171429,10.0582857 Z" id="Fill-1" fill="#000000" mask="url(#mask-2)"></path>
            </g>
            <g id="add">
                <g id="Group-3">
                    <mask id="mask-4" fill="white">
                        <use xlink:href="#path-3"></use>
                    </mask>
                    <g id="Clip-2"></g>
                    <path d="M9.99569892,0.0425531915 C4.49010753,0.0425531915 0,4.46829787 0,9.91446809 C0,15.3617021 4.47333333,19.7874468 9.99569892,19.7874468 C15.5006452,19.7874468 19.9739785,15.3617021 19.9739785,9.91446809 C19.9739785,4.46829787 15.5006452,0.0425531915 9.99569892,0.0425531915 Z M9.99569892,18.4085106 C5.26451613,18.4085106 1.41053763,14.5953191 1.41053763,9.91446809 C1.41053763,5.23361702 5.26451613,1.4212766 9.99569892,1.4212766 C14.7268817,1.4212766 18.5802151,5.23361702 18.5802151,9.91446809 C18.5802151,14.5953191 14.7268817,18.4085106 9.99569892,18.4085106 Z" id="Fill-1" fill="#000000" mask="url(#mask-4)"></path>
                </g>
                <path d="M14.5892473,9.13170213 L10.7015054,9.13170213 L10.7015054,5.26787234 C10.7015054,4.87638298 10.3913978,4.57042553 9.99569892,4.57042553 C9.60021505,4.57042553 9.29010753,4.87638298 9.29010753,5.26787234 L9.29010753,9.11510638 L5.40236559,9.11510638 C5.00666667,9.11510638 4.69677419,9.42085106 4.69677419,9.81319149 C4.69677419,10.2046809 5.00666667,10.5104255 5.40236559,10.5104255 L9.29010753,10.5104255 L9.29010753,14.3576596 C9.29010753,14.7491489 9.60021505,15.0551064 9.99569892,15.0551064 C10.3913978,15.0551064 10.7015054,14.7491489 10.7015054,14.3576596 L10.7015054,10.5104255 L14.5892473,10.5104255 C14.9849462,10.5104255 15.2948387,10.2046809 15.2948387,9.81319149 C15.2948387,9.42085106 14.9849462,9.13170213 14.5892473,9.13170213 Z" id="Fill-4" fill="#000000"></path>
            </g>
            <g id="add-copy" transform="translate(40.000000, 59.000000)">
                <g id="Group-3">
                    <mask id="mask-6" fill="white">
                        <use xlink:href="#path-5"></use>
                    </mask>
                    <g id="Clip-2"></g>
                    <path d="M9.99569892,0.0425531915 C4.49010753,0.0425531915 0,4.46829787 0,9.91446809 C0,15.3617021 4.47333333,19.7874468 9.99569892,19.7874468 C15.5006452,19.7874468 19.9739785,15.3617021 19.9739785,9.91446809 C19.9739785,4.46829787 15.5006452,0.0425531915 9.99569892,0.0425531915 Z M9.99569892,18.4085106 C5.26451613,18.4085106 1.41053763,14.5953191 1.41053763,9.91446809 C1.41053763,5.23361702 5.26451613,1.4212766 9.99569892,1.4212766 C14.7268817,1.4212766 18.5802151,5.23361702 18.5802151,9.91446809 C18.5802151,14.5953191 14.7268817,18.4085106 9.99569892,18.4085106 Z" id="Fill-1" fill="#000000" mask="url(#mask-6)"></path>
                </g>
                <path d="M14.5892473,9.13170213 L10.7015054,9.13170213 L9.29010753,9.11510638 L5.40236559,9.11510638 C5.00666667,9.11510638 4.69677419,9.42085106 4.69677419,9.81319149 C4.69677419,10.2046809 5.00666667,10.5104255 5.40236559,10.5104255 L9.29010753,10.5104255 L10.7015054,10.5104255 L14.5892473,10.5104255 C14.9849462,10.5104255 15.2948387,10.2046809 15.2948387,9.81319149 C15.2948387,9.42085106 14.9849462,9.13170213 14.5892473,9.13170213 Z" id="Fill-4" fill="#000000"></path>
            </g>
            <g id="Group-4" transform="translate(4.000000, 22.000000)" fill="#F74E4E">
                <circle id="Oval-4" cx="6.15384615" cy="11.0769231" r="1.23076923"></circle>
                <path d="M2.46153846,3.69230769 C2.46153846,1.65310246 4.11464092,0 6.15384615,0 C8.19305138,0 9.84615385,1.65310246 9.84615385,3.69230769 L8.61538462,3.69230769 C8.61538462,2.33283754 7.51331631,1.23076923 6.15384615,1.23076923 C4.794376,1.23076923 3.69230769,2.33283754 3.69230769,3.69230769 L2.46153846,3.69230769 Z" id="Combined-Shape"></path>
                <rect id="Rectangle-22" x="2.46153846" y="3.69230769" width="1.23076923" height="2.46153846"></rect>
                <rect id="Rectangle-22-Copy" x="8.61538462" y="3.69230769" width="1.23076923" height="2.46153846"></rect>
                <path d="M1,6.15384615 L11.3076923,6.15384615 C11.8599771,6.15384615 12.3076923,6.6015614 12.3076923,7.15384615 L12.3076923,15 L12.3076923,15 C12.3076923,15.5522847 11.8599771,16 11.3076923,16 L1,16 L1,16 C0.44771525,16 1.04869017e-15,15.5522847 0,15 L0,7.15384615 L0,7.15384615 C-6.76353751e-17,6.6015614 0.44771525,6.15384615 1,6.15384615 L1,6.15384615 Z M1.73076923,7.38461538 C1.45462686,7.38461538 1.23076923,7.60847301 1.23076923,7.88461538 L1.23076923,14.2692308 C1.23076923,14.5453731 1.45462686,14.7692308 1.73076923,14.7692308 L1.73076923,14.7692308 L10.5769231,14.7692308 C10.8530655,14.7692308 11.0769231,14.5453731 11.0769231,14.2692308 L11.0769231,14.2692308 L11.0769231,7.88461538 C11.0769231,7.60847301 10.8530655,7.38461538 10.5769231,7.38461538 L1.73076923,7.38461538 Z" id="Combined-Shape"></path>
            </g>
            <g id="edit" transform="translate(42.000000, 22.000000)" fill="#000000">
                <path d="M15.468766,14.8837447 L0.571744681,14.8837447 C0.258723404,14.8837447 0.0132765957,15.1422979 0.0132765957,15.4415319 C0.0132765957,15.7414468 0.272680851,16 0.571744681,16 L15.4827234,16 C15.7959149,16 16.0405106,15.7414468 16.0405106,15.4415319 C16.0405106,15.1422979 15.7819574,14.8837447 15.468766,14.8837447 Z" id="Fill-1"></path>
                <path d="M0.0132765957,9.94025532 L0,12.5957447 C0,12.7453617 0.0544680851,12.8949787 0.163574468,13.0040851 C0.272680851,13.1131915 0.408170213,13.1676596 0.558468085,13.1676596 L3.20017021,13.154383 C3.34978723,13.154383 3.48595745,13.0997447 3.59506383,12.9908085 L12.7181277,3.86706383 C12.9361702,3.64970213 12.9361702,3.29531915 12.7181277,3.06382979 L10.1036596,0.422297872 C9.88561702,0.204255319 9.53191489,0.204255319 9.30059574,0.422297872 L7.47608511,2.26076596 L0.176851064,9.5453617 C0.0817021277,9.65429787 0.0132765957,9.7906383 0.0132765957,9.94025532 Z M9.70876596,1.62042553 L11.547234,3.45889362 L10.5126809,4.49344681 L8.67421277,2.65497872 L9.70876596,1.62042553 Z M1.14365957,10.1855319 L7.87029787,3.45889362 L9.70876596,5.2973617 L2.98212766,12.0100426 L1.13038298,12.024 L1.14365957,10.1855319 Z" id="Fill-2"></path>
            </g>
            <path d="M57.3844767,9.38465699 L56.7689534,9.38465699 L56.7689534,8.76913369 C56.7689534,8.42964031 56.4932841,8.15397097 56.1537907,8.15397097 C55.8133057,8.15397097 55.5382674,8.42964031 55.5382674,8.76913369 L55.5382674,9.38465699 L54.3075814,9.38465699 C54.3075814,9.04480303 54.0318219,8.76913369 53.6919679,8.76913369 C53.3518435,8.76913369 53.0768052,9.04480303 53.0768052,9.38465699 L52.7162174,9.38465699 L52.1006941,8.76913369 L53.9469936,6.92319481 L54.9231047,6.92319481 C55.2625079,6.92319481 55.5382674,6.64788605 55.5382674,6.3076715 C55.5382674,5.96790769 55.2625079,5.6921482 54.9231047,5.6921482 L54.3075814,5.6921482 L54.3075814,5.07698549 C54.3075814,4.73713152 54.0318219,4.46146218 53.6923285,4.46146218 C53.3518435,4.46146218 53.0768052,4.73713152 53.0768052,5.07698549 L53.0768052,6.05309655 L51.2305959,7.89930587 L50.6154332,7.28378257 L50.6154332,6.92319481 C50.9548364,6.92319481 51.2305959,6.6481565 51.2305959,6.3076715 C51.2305959,5.96826828 50.9548364,5.69250879 50.6154332,5.69250879 L50.6154332,4.46146218 L51.2305959,4.46146218 C51.5703597,4.46146218 51.8461192,4.18642387 51.8461192,3.84620932 C51.8461192,3.50644551 51.5703597,3.23068602 51.2305959,3.23068602 L50.6154332,3.23068602 L50.6154332,2.6155233 C50.6154332,2.27575949 50.3396737,2 49.9998197,2 C49.6596953,2 49.3842964,2.27575949 49.3842964,2.6155233 L49.3842964,3.23068602 L48.7691337,3.23068602 C48.4286487,3.23068602 48.1536104,3.50644551 48.1536104,3.84620932 C48.1536104,4.18642387 48.4286487,4.46146218 48.7691337,4.46146218 L49.3842964,4.46146218 L49.3842964,5.69250879 C49.044172,5.69250879 48.7691337,5.96826828 48.7691337,6.3076715 C48.7691337,6.6481565 49.044172,6.92319481 49.3842964,6.92319481 L49.3842964,7.28378257 L48.7691337,7.89930587 L46.9229244,6.05309655 L46.9229244,5.07698549 C46.9229244,4.73713152 46.6471649,4.46146218 46.3073109,4.46146218 C45.9671865,4.46146218 45.6921482,4.73713152 45.6921482,5.07698549 L45.6921482,5.6921482 L45.0766249,5.6921482 C44.7365005,5.6921482 44.4614622,5.96790769 44.4614622,6.3076715 C44.4614622,6.64788605 44.7365005,6.92319481 45.0766249,6.92319481 L46.052736,6.92319481 L47.8990354,8.76913369 L47.2835121,9.38465699 L46.9229244,9.38465699 C46.9229244,9.04480303 46.6471649,8.76913369 46.3076715,8.76913369 C45.9671865,8.76913369 45.6921482,9.04480303 45.6921482,9.38465699 L44.4614622,9.38465699 L44.4614622,8.76913369 C44.4614622,8.42964031 44.1857027,8.15397097 43.8459389,8.15397097 C43.5057243,8.15397097 43.2307762,8.42964031 43.2307762,8.76913369 L43.2307762,9.38465699 L42.6151627,9.38465699 C42.2750383,9.38465699 42,9.66041648 42,10.0001803 C42,10.3403948 42.2750383,10.615343 42.6151627,10.615343 L43.2307762,10.615343 L43.2307762,11.2308663 C43.2307762,11.5710809 43.5057243,11.8461192 43.8459389,11.8461192 C44.1857027,11.8461192 44.4614622,11.5710809 44.4614622,11.2308663 L44.4614622,10.615343 L45.6921482,10.615343 C45.6921482,10.9559181 45.9671865,11.2308663 46.3076715,11.2308663 C46.6471649,11.2308663 46.9229244,10.9559181 46.9229244,10.615343 L47.2835121,10.615343 L47.8990354,11.2308663 L46.052736,13.0771658 L45.0766249,13.0771658 C44.7365005,13.0771658 44.4614622,13.3528351 44.4614622,13.6923285 C44.4614622,14.0328135 44.7365005,14.3078518 45.0766249,14.3078518 L45.6921482,14.3078518 L45.6921482,14.9230145 C45.6921482,15.2635897 45.9671865,15.538628 46.3073109,15.538628 C46.6471649,15.538628 46.9229244,15.2635897 46.9229244,14.9230145 L46.9229244,13.9469035 L48.7691337,12.1010547 L49.3842964,12.7162174 L49.3842964,13.0768052 C49.044172,13.0768052 48.7691337,13.3525647 48.7691337,13.6923285 C48.7691337,14.032543 49.044172,14.3074912 49.3842964,14.3074912 L49.3842964,15.538628 L48.7691337,15.538628 C48.4286487,15.538628 48.1536104,15.8142973 48.1536104,16.1537907 C48.1536104,16.4942757 48.4286487,16.769314 48.7691337,16.769314 L49.3842964,16.769314 L49.3842964,17.3844767 C49.3842964,17.7249617 49.6596953,18 49.9998197,18 C50.3396737,18 50.6154332,17.7249617 50.6154332,17.3844767 L50.6154332,16.769314 L51.2305959,16.769314 C51.5703597,16.769314 51.8461192,16.4942757 51.8461192,16.1537907 C51.8461192,15.8142973 51.5703597,15.538628 51.2305959,15.538628 L50.6154332,15.538628 L50.6154332,14.3074912 C50.9548364,14.3074912 51.2305959,14.032543 51.2305959,13.6923285 C51.2305959,13.3525647 50.9548364,13.0768052 50.6154332,13.0768052 L50.6154332,12.7162174 L51.2305959,12.1010547 L53.0768052,13.9469035 L53.0768052,14.9230145 C53.0768052,15.2635897 53.3518435,15.538628 53.6923285,15.538628 C54.0318219,15.538628 54.3075814,15.2635897 54.3075814,14.9230145 L54.3075814,14.3078518 L54.9231047,14.3078518 C55.2625079,14.3078518 55.5382674,14.0328135 55.5382674,13.6923285 C55.5382674,13.3528351 55.2625079,13.0771658 54.9231047,13.0771658 L53.9469936,13.0771658 L52.1006941,11.2308663 L52.7162174,10.615343 L53.0768052,10.615343 C53.0768052,10.9559181 53.3518435,11.2308663 53.6919679,11.2308663 C54.0318219,11.2308663 54.3075814,10.9559181 54.3075814,10.615343 L55.5382674,10.615343 L55.5382674,11.2308663 C55.5382674,11.5710809 55.8133057,11.8461192 56.1537907,11.8461192 C56.4932841,11.8461192 56.7689534,11.5710809 56.7689534,11.2308663 L56.7689534,10.615343 L57.3844767,10.615343 C57.7243307,10.615343 57.9997296,10.3403948 57.9997296,10.0001803 C57.9997296,9.66041648 57.7243307,9.38465699 57.3844767,9.38465699 Z M49.9994591,11.5914541 L48.4081853,10.0001803 L49.9994591,8.40854593 L51.5911836,10.0001803 L49.9994591,11.5914541 Z" id="Fill-19" fill="#000000"></path>
            <g id="Group-4-Copy" transform="translate(24.000000, 22.000000)" fill="#000000">
                <circle id="Oval-4" cx="6.15384615" cy="11.0769231" r="1.23076923"></circle>
                <path d="M2.46153846,3.69230769 C2.46153846,1.65310246 4.11464092,0 6.15384615,0 C8.19305138,0 9.84615385,1.65310246 9.84615385,3.69230769 L8.61538462,3.69230769 C8.61538462,2.33283754 7.51331631,1.23076923 6.15384615,1.23076923 C4.794376,1.23076923 3.69230769,2.33283754 3.69230769,3.69230769 L2.46153846,3.69230769 Z" id="Combined-Shape"></path>
                <rect id="Rectangle-22" x="2.46153846" y="3.69230769" width="1.23076923" height="2.46153846"></rect>
                <path d="M1,6.15384615 L11.3076923,6.15384615 C11.8599771,6.15384615 12.3076923,6.6015614 12.3076923,7.15384615 L12.3076923,15 L12.3076923,15 C12.3076923,15.5522847 11.8599771,16 11.3076923,16 L1,16 L1,16 C0.44771525,16 1.04869017e-15,15.5522847 0,15 L0,7.15384615 L0,7.15384615 C-6.76353751e-17,6.6015614 0.44771525,6.15384615 1,6.15384615 L1,6.15384615 Z M1.73076923,7.38461538 C1.45462686,7.38461538 1.23076923,7.60847301 1.23076923,7.88461538 L1.23076923,14.2692308 C1.23076923,14.5453731 1.45462686,14.7692308 1.73076923,14.7692308 L1.73076923,14.7692308 L10.5769231,14.7692308 C10.8530655,14.7692308 11.0769231,14.5453731 11.0769231,14.2692308 L11.0769231,14.2692308 L11.0769231,7.88461538 C11.0769231,7.60847301 10.8530655,7.38461538 10.5769231,7.38461538 L1.73076923,7.38461538 Z" id="Combined-Shape"></path>
            </g>
            <g id="shining-sun" transform="translate(62.000000, 2.000000)" fill="#000000">
                <path d="M15.0524706,7.48847059 L12.9531765,7.48847059 C12.6792941,7.48847059 12.4677647,7.70070588 12.4677647,7.97364706 C12.4677647,8.24658824 12.6792941,8.46729412 12.9531765,8.46729412 L15.0524706,8.46729412 C15.3263529,8.46729412 15.5376471,8.24658824 15.5376471,7.97364706 C15.5376471,7.70070588 15.3263529,7.48847059 15.0524706,7.48847059 Z" id="Fill-1"></path>
                <path d="M11.7792941,4.67411765 L13.2618824,3.17411765 C13.4503529,2.98188235 13.4576471,2.69505882 13.2618824,2.48470588 C13.0781176,2.28894118 12.7748235,2.28164706 12.5736471,2.48470588 L11.0910588,3.98470588 C10.9016471,4.17670588 10.8877647,4.47082353 11.0910588,4.67411765 C11.2767059,4.85882353 11.5945882,4.86070588 11.7792941,4.67411765 Z" id="Fill-2"></path>
                <path d="M11.7792941,11.3 C11.5762353,11.0967059 11.2675294,11.0967059 11.0910588,11.3 C10.8877647,11.4764706 10.9007059,11.7990588 11.0910588,11.9884706 L12.5736471,13.4698824 C12.7232941,13.6564706 13.1122353,13.6564706 13.2618824,13.4698824 C13.4651765,13.2952941 13.4642353,12.9847059 13.2618824,12.7832941 L11.7792941,11.3 Z" id="Fill-3"></path>
                <path d="M7.76470588,3.29811765 C8.03858824,3.29811765 8.25929412,3.08494118 8.25929412,2.812 L8.25929412,0.694352941 C8.25929412,0.421176471 8.03858824,0.208941176 7.76470588,0.208941176 C7.49082353,0.208941176 7.27952941,0.421176471 7.27952941,0.694352941 L7.27952941,2.812 C7.27952941,3.08494118 7.49082353,3.29811765 7.76470588,3.29811765 Z" id="Fill-4"></path>
                <path d="M7.76470588,12.6757647 C7.49082353,12.6757647 7.27952941,12.8882353 7.27952941,13.1611765 L7.27952941,15.2788235 C7.27952941,15.5352941 7.49082353,15.7649412 7.76470588,15.7649412 C8.03858824,15.7649412 8.25929412,15.5352941 8.25929412,15.2623529 L8.25929412,13.1611765 C8.25929412,12.8882353 8.03858824,12.6757647 7.76470588,12.6757647 Z" id="Fill-5"></path>
                <path d="M10.4291765,5.30823529 C9.69294118,4.572 8.80611765,4.19788235 7.76470588,4.19788235 C6.72329412,4.19788235 5.83270588,4.56823529 5.09105882,5.30823529 C4.35835294,6.04070588 3.988,6.93223529 3.988,7.97364706 C3.988,9.01505882 4.35482353,9.91011765 5.09105882,10.6463529 C5.82823529,11.3844706 6.72329412,11.7494118 7.76470588,11.7494118 C8.80611765,11.7494118 9.69670588,11.3790588 10.4291765,10.6463529 C11.1701176,9.90658824 11.5414118,9.01505882 11.5414118,7.97364706 C11.5414118,6.93223529 11.1663529,6.04635294 10.4291765,5.30823529 Z M9.75011765,9.95976471 C9.20305882,10.5058824 8.54141176,10.7807059 7.76470588,10.7807059 C6.99717647,10.7807059 6.33552941,10.5058824 5.78870588,9.95976471 C5.24070588,9.412 4.96776471,8.74941176 4.96776471,7.97364706 C4.96776471,7.20517647 5.24070588,6.54541176 5.78870588,5.99764706 C6.33552941,5.44964706 6.99717647,5.17670588 7.76470588,5.17670588 C8.54141176,5.17670588 9.20305882,5.44964706 9.75011765,5.99764706 C10.2969412,6.54541176 10.5708235,7.20517647 10.5708235,7.97364706 C10.5708235,8.74941176 10.2969412,9.412 9.75011765,9.95976471 Z" id="Fill-6"></path>
                <path d="M3.77670588,4.67411765 C3.87317647,4.76964706 3.988,4.81458824 4.12047059,4.81458824 C4.23529412,4.81458824 4.35011765,4.76964706 4.46517647,4.67411765 C4.64164706,4.47082353 4.64164706,4.16211765 4.46517647,3.98470588 L2.96517647,2.48470588 C2.78870588,2.31011765 2.45317647,2.31011765 2.27670588,2.48470588 C2.07341176,2.68776471 2.08635294,2.98376471 2.27670588,3.17411765 L3.77670588,4.67411765 Z" id="Fill-7"></path>
                <path d="M3.75929412,11.3 L2.27670588,12.7832941 C2.07341176,12.9847059 2.07341176,13.2851765 2.27670588,13.4891765 C2.46141176,13.6731765 2.77929412,13.6731765 2.96517647,13.4891765 L4.46517647,11.9884706 C4.65435294,11.7990588 4.64164706,11.4764706 4.46517647,11.3 C4.26188235,11.0967059 3.96141176,11.0967059 3.75929412,11.3 Z" id="Fill-8"></path>
                <path d="M3.08823529,7.97364706 C3.08823529,7.70070588 2.87694118,7.48847059 2.60282353,7.48847059 L0.485176471,7.48847059 C0.211294118,7.48847059 0,7.70070588 0,7.97364706 C0,8.24658824 0.211294118,8.46729412 0.485176471,8.46729412 L2.60282353,8.46729412 C2.87694118,8.46729412 3.08823529,8.24658824 3.08823529,7.97364706 Z" id="Fill-9"></path>
            </g>
            <g id="Group" transform="translate(64.000000, 22.000000)" fill="#000000">
                <path d="M10.801,7.199 L9.204,7.199 L9.204,4.398 C9.204,2.855 7.946,1.602 6.403,1.602 C4.86,1.602 3.602,2.855 3.602,4.398 L3.602,7.199 L2,7.199 L2,4.398 C2,1.973 3.977,0 6.403,0 C8.829,0 10.801,1.973 10.801,4.398 L10.801,7.199 Z" id="Fill-2"></path>
                <polygon id="Fill-1" points="0 16 13 16 13 7 0 7"></polygon>
            </g>
            <g id="logout" transform="translate(2.000000, 43.000000)">
                <mask id="mask-8" fill="white">
                    <use xlink:href="#path-7"></use>
                </mask>
                <g id="Clip-2"></g>
                <path d="M2.5605625,7.5624375 L11.24975,7.5624375 C11.6640625,7.5624375 11.99975,7.22675 11.99975,6.8124375 C11.99975,6.398375 11.6640625,6.0624375 11.24975,6.0624375 L2.5605625,6.0624375 L3.53025,5.09275 C3.82325,4.8 3.82325,4.325125 3.53025,4.0321875 C3.2375625,3.7391875 2.7624375,3.7391875 2.46975,4.0321875 L0.21975,6.2821875 C0.202125,6.29975 0.1855625,6.3180625 0.1699375,6.337375 C0.1630625,6.345625 0.157,6.3544375 0.150625,6.363 C0.1423125,6.374 0.1338125,6.3846875 0.12625,6.3961875 C0.119125,6.4066875 0.11325,6.4174375 0.1066875,6.4281875 C0.1005625,6.4384375 0.09425,6.4484375 0.088625,6.4591875 C0.08275,6.4701875 0.077625,6.481375 0.0725,6.492625 C0.067125,6.503625 0.06175,6.514375 0.057125,6.5255625 C0.0525,6.5365625 0.0488125,6.5478125 0.0449375,6.5588125 C0.0405,6.57075 0.035875,6.5826875 0.03225,6.5949375 C0.0290625,6.6059375 0.026625,6.617125 0.0236875,6.628625 C0.0205,6.6410625 0.0170625,6.65325 0.014625,6.6659375 C0.0119375,6.678875 0.0105,6.6920625 0.0085625,6.70525 C0.0070625,6.71625 0.004875,6.72725 0.0036875,6.73875 C0.0014375,6.762875 0,6.7870625 0,6.8115 C0,6.8116875 0,6.8121875 0,6.8124375 C0,6.8129375 0,6.8131875 0,6.8136875 C0,6.8380625 0.0014375,6.86225 0.0036875,6.8866875 C0.004875,6.897625 0.0068125,6.908625 0.0085625,6.919625 C0.0105,6.9328125 0.0119375,6.946 0.014625,6.9591875 C0.0170625,6.971625 0.0205,6.9838125 0.0236875,6.9963125 C0.026625,7.0075 0.0290625,7.019 0.0325,7.03025 C0.036125,7.0424375 0.0405,7.053875 0.0449375,7.065875 C0.0488125,7.077125 0.0525,7.0883125 0.057125,7.0995625 C0.06175,7.1105625 0.067125,7.1210625 0.07225,7.1318125 C0.077625,7.14325 0.08275,7.15475 0.088625,7.1661875 C0.09425,7.1764375 0.1003125,7.186 0.1064375,7.196 C0.1128125,7.207 0.119125,7.2181875 0.1264375,7.2289375 C0.1335625,7.2399375 0.141875,7.2501875 0.1496875,7.2606875 C0.1565,7.26975 0.1628125,7.27925 0.1699375,7.2880625 C0.1850625,7.306125 0.2006875,7.3236875 0.2173125,7.3403125 C0.21825,7.34125 0.21875,7.342 0.2195,7.3429375 L2.4695,9.5929375 C2.6161875,9.7394375 2.808125,9.8126875 3,9.8126875 C3.191875,9.8124375 3.3838125,9.7394375 3.53025,9.5929375 C3.82325,9.3 3.82325,8.825125 3.53025,8.5324375 L2.5605625,7.5624375 Z" id="Fill-1" fill="#000000" mask="url(#mask-8)"></path>
                <path d="M15.25,0.0624375 L5.75,0.0624375 C5.3359375,0.0624375 5,0.398125 5,0.8124375 L5,3.8124375 C5,4.22675 5.3359375,4.5624375 5.75,4.5624375 C6.1643125,4.5624375 6.5,4.22675 6.5,3.8124375 L6.5,1.5624375 L14.5,1.5624375 L14.5,12.0624375 L6.5,12.0624375 L6.5,9.8124375 C6.5,9.398125 6.1643125,9.0624375 5.75,9.0624375 C5.3359375,9.0624375 5,9.398125 5,9.8124375 L5,12.8124375 C5,13.22675 5.3359375,13.5624375 5.75,13.5624375 L15.25,13.5624375 C15.6643125,13.5624375 16,13.22675 16,12.8124375 L16,0.8124375 C16,0.398125 15.6643125,0.0624375 15.25,0.0624375 Z" id="Fill-3" fill="#000000" mask="url(#mask-8)"></path>
            </g>
            <g id="check-mark-sign" transform="translate(22.000000, 43.000000)">
                <mask id="mask-10" fill="white">
                    <use xlink:href="#path-9"></use>
                </mask>
                <g id="Clip-2"></g>
                <path d="M14.2795429,0.367085714 C13.8964571,-0.016 13.2758857,-0.016 12.8928,0.367085714 L4.91611429,8.34308571 L3.06171429,6.48845714 C2.67862857,6.1056 2.05714286,6.1056 1.67405714,6.48845714 L0.287542857,7.87611429 C-0.0955428571,8.2592 -0.0955428571,8.87954286 0.287542857,9.26262857 L4.2224,13.1984 C4.60617143,13.5814857 5.22674286,13.5814857 5.60982857,13.1984 L15.6669714,3.14125714 C16.0500571,2.75817143 16.0500571,2.13668571 15.6669714,1.75382857 L14.2795429,0.367085714 Z" id="Fill-1" fill="#68B513" mask="url(#mask-10)"></path>
            </g>
            <path d="M52.1663301,49.9996352 L56.9136788,45.2522865 C57.0276793,45.138286 57.0276793,44.9536962 56.9136788,44.8396957 L55.1595291,43.085546 C55.1053561,43.0306434 55.0305717,43 54.9535985,43 C54.8758957,43 54.8018409,43.0306434 54.7469383,43.085546 L49.9995896,47.8328947 L45.2522409,43.085546 C45.1424356,42.9757407 44.9487258,42.9757407 44.8396501,43.085546 L43.0855004,44.8396957 C42.9714999,44.9536962 42.9714999,45.138286 43.0855004,45.2522865 L47.8328491,49.9996352 L43.0855004,54.7469839 C42.9714999,54.8609844 42.9714999,55.0455742 43.0855004,55.1595747 L44.8396501,56.9137244 C44.8938231,56.968627 44.9686075,56.9992704 45.0455807,56.9992704 C45.1232835,56.9992704 45.1973382,56.968627 45.2522409,56.9137244 L49.9995896,52.1663757 L54.7469383,56.9137244 C54.8018409,56.968627 54.8758957,57 54.9535985,57 C55.0305717,57 55.1053561,56.968627 55.1595291,56.9137244 L56.9136788,55.1603043 C57.0276793,55.0463038 57.0276793,54.8609844 56.9136788,54.7469839 L52.1663301,49.9996352 Z" id="cross-remove-sign" fill="#F74E4E"></path>
            <g id="icon-(2)" transform="translate(61.000000, 41.000000)">
                <mask id="mask-12" fill="white">
                    <use xlink:href="#path-11"></use>
                </mask>
                <g id="Clip-2"></g>
                <path d="M16.4691818,2.12563636 L10.4735455,2.12563636 L10.4735455,4.08190909 L12.4584545,4.08190909 L12.4584545,5.40818182 L10.4735455,5.40818182 L10.4735455,6.70909091 L12.4355455,6.70909091 L12.4355455,8.01981818 L10.4735455,8.01981818 L10.4735455,9.32645455 L12.4355455,9.32645455 L12.4355455,10.6371818 L10.4735455,10.6371818 L10.4735455,11.9438182 L12.4355455,11.9438182 L12.4355455,13.2545455 L10.4735455,13.2545455 L10.4735455,15.2165455 L16.4691818,15.2165455 C16.7727273,15.2165455 17.019,14.9612727 17.019,14.6479091 L17.019,2.69836364 C17.019,2.38172727 16.7727273,2.12563636 16.4691818,2.12563636 Z M13.0909091,14.562 L15.7082727,14.562 L15.7082727,11.9438182 L13.0909091,11.9438182 L13.0909091,14.562 Z M13.0909091,11.9446364 L15.7082727,11.9446364 L15.7082727,9.32645455 L13.0909091,9.32645455 L13.0909091,11.9446364 Z M13.0909091,9.32727273 L15.7082727,9.32727273 L15.7082727,6.70909091 L13.0909091,6.70909091 L13.0909091,9.32727273 Z M13.0909091,6.70990909 L15.7082727,6.70990909 L15.7082727,4.09172727 L13.0909091,4.09172727 L13.0909091,6.70990909 Z" id="Fill-1" fill="#000000" mask="url(#mask-12)"></path>
                <path d="M0,2.05609091 L0,15.2901818 L9.81818182,17.1826364 L9.81818182,0.163636364 L0,2.05609091 Z M6.21,11.9986364 L5.06863636,9.83781818 C5.02445455,9.75845455 4.97945455,9.61118182 4.93445455,9.39354545 L4.91563636,9.39354545 C4.89272727,9.49581818 4.84527273,9.64963636 4.76181818,9.85745455 L3.618,11.9986364 L1.83763636,11.9986364 L3.95018182,8.68418182 L2.01681818,5.36645455 L3.83563636,5.36645455 L4.78145455,7.35463636 C4.85509091,7.51090909 4.92218182,7.69990909 4.98272727,7.91427273 L4.99827273,7.91427273 C5.03672727,7.78581818 5.10709091,7.59109091 5.20609091,7.33581818 L6.26072727,5.36645455 L7.92654545,5.36645455 L5.93836364,8.65554545 L7.98054545,11.9986364 L6.21,11.9986364 Z" id="Fill-3" fill="#000000" mask="url(#mask-12)"></path>
            </g>
            <g id="rubbish-copy-2" transform="translate(2.000000, 60.000000)">
                <g id="Group-3">
                    <mask id="mask-14" fill="white">
                        <use xlink:href="#path-13"></use>
                    </mask>
                    <g id="Clip-2"></g>
                    <path d="M9.44609375,14.9565312 L2.17846875,14.9565312 L1.72465625,4.2533125 L9.899875,4.2533125 L9.44609375,14.9565312 Z M1.04346875,2.64840625 L10.5810313,2.64840625 L10.5810313,3.20984375 C10.107,3.20984375 1.32746875,3.20984375 1.04346875,3.20984375 L1.04346875,2.64840625 Z M4.4231875,1.6049375 L7.2013125,1.6049375 L7.2013125,1.04346875 L4.4231875,1.04346875 L4.4231875,1.6049375 Z M11.1028125,1.6049375 L8.24484375,1.6049375 L8.24484375,0.52175 C8.24484375,0.23359375 8.01121875,0 7.72309375,0 L3.90146875,0 C3.6133125,0 3.37971875,0.23359375 3.37971875,0.52175 L3.37971875,1.6049375 L0.52175,1.6049375 C0.23359375,1.6049375 0,1.83853125 0,2.1266875 L0,3.73159375 C0,4.01971875 0.23359375,4.2533125 0.52175,4.2533125 L0.68025,4.2533125 L1.157125,15.500375 C1.1689375,15.7796563 1.3988125,16 1.678375,16 L9.946125,16 C10.2256563,16 10.4555312,15.7796563 10.467375,15.5003438 L10.9442188,4.25328125 L11.10275,4.25328125 C11.390875,4.25328125 11.6245,4.0196875 11.6245,3.7315625 L11.6245,2.1266875 C11.6245625,1.8385 11.3909688,1.6049375 11.1028125,1.6049375 L11.1028125,1.6049375 Z" id="Fill-1" fill="#0A0B09" mask="url(#mask-14)"></path>
                </g>
                <path d="M3.7133125,13.3565625 C4.00146875,13.3565625 4.2350625,13.1229687 4.2350625,12.8348125 L4.2350625,6.375 C4.2350625,6.08684375 4.00146875,5.85325 3.7133125,5.85325 C3.4251875,5.85325 3.19159375,6.08684375 3.19159375,6.375 L3.19159375,12.8348125 C3.19159375,13.1229687 3.4251875,13.3565625 3.7133125,13.3565625" id="Fill-4" fill="#0A0B09"></path>
                <path d="M5.8121875,13.3565625 C6.1003125,13.3565625 6.33390625,13.1229687 6.33390625,12.8348125 L6.33390625,6.375 C6.33390625,6.08684375 6.1003125,5.85325 5.8121875,5.85325 C5.52403125,5.85325 5.2904375,6.08684375 5.2904375,6.375 L5.2904375,12.8348125 C5.2904375,13.1229687 5.524,13.3565625 5.8121875,13.3565625" id="Fill-5" fill="#0A0B09"></path>
                <path d="M7.91103125,13.3565625 C8.19915625,13.3565625 8.43275,13.1229687 8.43275,12.8348125 L8.43275,6.375 C8.43275,6.08684375 8.19915625,5.85325 7.91103125,5.85325 C7.622875,5.85325 7.38928125,6.08684375 7.38928125,6.375 L7.38928125,12.8348125 C7.38928125,13.1229687 7.622875,13.3565625 7.91103125,13.3565625" id="Fill-6" fill="#0A0B09"></path>
            </g>
            <g id="Group-7" transform="translate(20.000000, 57.000000)">
                <path d="M2,7 L13,7 C13.5522847,7 14,7.44771525 14,8 L14,16 C14,16.5522847 13.5522847,17 13,17 L2,17 C1.44771525,17 1,16.5522847 1,16 L1,8 L1,8 C1,7.44771525 1.44771525,7 2,7 L2,7 Z M2.5,8 C2.22385763,8 2,8.22385763 2,8.5 L2,15.5 C2,15.7761424 2.22385763,16 2.5,16 L12.5,16 C12.7761424,16 13,15.7761424 13,15.5 L13,8.5 C13,8.22385763 12.7761424,8 12.5,8 L2.5,8 Z" id="Combined-Shape" fill="#000000"></path>
                <g id="Group-6" transform="translate(7.500000, 7.371117) rotate(-45.000000) translate(-7.500000, -7.371117) translate(2.500000, 2.371117)" fill="#000000">
                    <path d="M0.5,0.656854249 L0.5,0.656854249 L0.5,0.656854249 C0.776142375,0.656854249 1,0.880711875 1,1.15685425 L1,9.5 L1,9.5 C1,9.77614237 0.776142375,10 0.5,10 L0.5,10 L0.5,10 C0.223857625,10 8.330363e-13,9.77614237 8.27116153e-13,9.5 L6.34216112e-13,1.15685425 L6.34159392e-13,1.15685425 C6.27748718e-13,0.880711875 0.223857625,0.656854249 0.5,0.656854249 Z" id="Rectangle-8"></path>
                    <path d="M0.5,9 L8.84314575,9 L8.84314575,9 C9.11928813,9 9.34314575,9.22385763 9.34314575,9.5 L9.34314575,9.5 L9.34314575,9.5 C9.34314575,9.77614237 9.11928813,10 8.84314575,10 L0.5,10 L0.5,10 C0.223857625,10 1.15333486e-12,9.77614237 1.13686838e-12,9.5 L1.13686838e-12,9.5 L1.13686838e-12,9.5 C1.13683456e-12,9.22385763 0.223857625,9 0.5,9 Z" id="Rectangle-9"></path>
                </g>
                <g id="Group-6-Copy-2" transform="translate(7.500000, 16.371117) scale(1, -1) rotate(-45.000000) translate(-7.500000, -16.371117) translate(2.500000, 11.371117)" fill="#000000">
                    <path d="M0.5,0.656854249 L0.5,0.656854249 L0.5,0.656854249 C0.776142375,0.656854249 1,0.880711875 1,1.15685425 L1,6.67157288 L1,6.67157288 C1,6.94771525 0.776142375,7.17157288 0.5,7.17157288 L0.5,7.17157288 L0.5,7.17157288 C0.223857625,7.17157288 -4.16894709e-13,6.94771525 -5.42503542e-13,6.67157288 L-8.44540705e-14,1.15685425 L-8.45365444e-14,1.15685425 C-6.17608381e-14,0.880711875 0.223857625,0.656854249 0.5,0.656854249 Z" id="Rectangle-8"></path>
                    <path d="M3.32842712,9 L8.84314575,9 L8.84314575,9 C9.11928813,9 9.34314575,9.22385763 9.34314575,9.5 L9.34314575,9.5 L9.34314575,9.5 C9.34314575,9.77614237 9.11928813,10 8.84314575,10 L3.32842712,10 L3.32842712,10 C3.05228475,10 2.82842712,9.77614237 2.82842712,9.5 L2.82842712,9.5 L2.82842712,9.5 C2.82842712,9.22385763 3.05228475,9 3.32842712,9 Z" id="Rectangle-9"></path>
                </g>
                <path d="M12.5030524,12 C10.573585,12 9,13.569024 9,15.4998114 C9,17.430976 10.5677064,19 12.5030524,19 C14.4322936,19 16,17.430976 16,15.4998114 C16,13.569024 14.4322936,12 12.5030524,12 Z" id="Path-Copy-2" fill="#000000"></path>
                <path d="M12.5000939,18 C11.1223212,18 10,16.8776303 10,15.4998747 C10,14.1221192 11.1223212,13 12.5000939,13 C13.8778667,13 15,14.1221192 15,15.4998747 C15,16.8776303 13.8778667,18 12.5000939,18 Z" id="Path-Copy" fill="#FFFFFF"></path>
                <path d="M12.2802813,15.8749219 L13.624875,15.8749219 C13.8320313,15.8749219 13.999875,15.7070851 13.999875,15.4999375 C13.999875,15.2929149 13.8320313,15.1249531 13.624875,15.1249531 L12.2802813,15.1249531 L12.765125,14.6401296 C12.911625,14.4937607 12.911625,14.2563331 12.765125,14.1098704 C12.6187813,13.9633765 12.3812188,13.9633765 12.234875,14.1098704 L11.109875,15.2348235 C11.1010625,15.2436044 11.0927813,15.2527603 11.0849688,15.2624161 C11.0815313,15.266541 11.0785,15.270947 11.0753125,15.2752281 C11.0711563,15.2807279 11.0669063,15.2860714 11.063125,15.2918212 C11.0595625,15.297071 11.056625,15.3024457 11.0533438,15.3078205 C11.0502813,15.3129453 11.047125,15.3179451 11.0443125,15.3233199 C11.041375,15.3288196 11.0388125,15.3344131 11.03625,15.3400379 C11.0335625,15.3455377 11.030875,15.3509125 11.0285625,15.356506 C11.02625,15.3620057 11.0244063,15.3676305 11.0224688,15.3731303 C11.02025,15.3790988 11.0179375,15.3850673 11.016125,15.391192 C11.0145313,15.3966918 11.0133125,15.4022853 11.0118438,15.4080351 C11.01025,15.4142536 11.0085313,15.4203471 11.0073125,15.4266906 C11.0059688,15.433159 11.00525,15.4397525 11.0042813,15.446346 C11.0035313,15.4518458 11.0024375,15.4573455 11.0018438,15.4630953 C11.0007188,15.4751573 11,15.4872505 11,15.4994688 C11,15.5127495 11.0007188,15.5248427 11.0018438,15.537061 C11.0024375,15.5425295 11.0034063,15.5480292 11.0042813,15.553529 C11.00525,15.5601225 11.0059688,15.566716 11.0073125,15.5733094 C11.0085313,15.5795279 11.01025,15.5856214 11.0118438,15.5918712 C11.0133125,15.5974647 11.0145313,15.6032144 11.01625,15.6088392 C11.0180625,15.6149327 11.02025,15.6206512 11.0224688,15.626651 C11.0244063,15.6322757 11.02625,15.6378693 11.0285625,15.643494 C11.030875,15.6489938 11.0335625,15.6542436 11.036125,15.6596183 C11.0388125,15.6653369 11.041375,15.6710866 11.0443125,15.6768051 C11.047125,15.6819299 11.0501563,15.686711 11.0532188,15.6917108 C11.0564063,15.6972105 11.0595625,15.702804 11.0632188,15.7081788 C11.0667813,15.7136786 11.0709375,15.7188034 11.0748438,15.7240532 C11.07825,15.7285842 11.0814063,15.733334 11.0849688,15.7377401 C11.0925313,15.746771 11.1003438,15.7555519 11.1086563,15.763864 C11.1089688,15.7641765 11.4843333,16.1395984 12.23475,16.8901296 C12.3080938,16.9633765 12.4040625,17 12.5,17 C12.5959375,16.999875 12.6919063,16.9633765 12.765125,16.8901296 C12.911625,16.7436669 12.911625,16.5062393 12.765125,16.3599017 L12.2802813,15.8749219 Z" id="Fill-1-Copy-2" fill="#000000" transform="translate(12.499938, 15.500000) scale(-1, 1) translate(-12.499938, -15.500000) "></path>
            </g>
            <g id="printer" transform="translate(62.000000, 62.000000)">
                <g id="Group-3">
                    <mask id="mask-16" fill="white">
                        <use xlink:href="#path-15"></use>
                    </mask>
                    <g id="Clip-2"></g>
                    <path d="M0.558468085,13.4330213 L3.67693617,13.4330213 L3.67693617,15.2714894 C3.67693617,15.5846809 3.92153191,15.8299574 4.2347234,15.8299574 L11.5877447,15.8299574 C11.901617,15.8299574 12.1462128,15.5846809 12.1462128,15.2714894 L12.1462128,13.4330213 L15.2646809,13.4330213 C15.5778723,13.4330213 15.8231489,13.1882553 15.8231489,12.875234 L15.8231489,2.96153191 C15.8231489,2.64851064 15.5778723,2.40306383 15.2646809,2.40306383 L12.1462128,2.40306383 L12.1462128,0.565276596 C12.1462128,0.252085106 11.901617,0.00680851064 11.5877447,0.00680851064 L4.2347234,0.00680851064 C3.92153191,0.00680851064 3.67693617,0.252085106 3.67693617,0.565276596 L3.67693617,2.40306383 L0.558468085,2.40306383 C0.245276596,2.40306383 0,2.64851064 0,2.96153191 L0,12.875234 C0,13.1742979 0.258723404,13.4330213 0.558468085,13.4330213 Z M4.79319149,14.7128511 L11.0299574,14.7128511 L11.0299574,10.1104681 L4.79319149,10.1104681 L4.79319149,14.7128511 Z M4.79319149,2.40306383 L11.0299574,2.40306383 L11.0299574,1.12323404 L4.79319149,1.12323404 L4.79319149,2.40306383 Z M1.11642553,3.52017021 L14.7060426,3.52017021 L14.7060426,12.3165957 L12.1462128,12.3165957 L12.1462128,10.1104681 L13.1402553,10.1104681 C13.4534468,10.1104681 13.6987234,9.86587234 13.6987234,9.552 C13.6987234,9.23880851 13.4534468,8.99421277 13.1402553,8.99421277 L2.69617021,8.99421277 C2.38297872,8.99421277 2.13770213,9.23880851 2.13770213,9.552 C2.13770213,9.86587234 2.38297872,10.1104681 2.69617021,10.1104681 L3.69021277,10.1104681 L3.69021277,12.3165957 L1.11642553,12.3165957 L1.11642553,3.52017021 Z" id="Fill-1" fill="#000000" mask="url(#mask-16)"></path>
                </g>
                <path d="M10.866383,6.39319149 L12.3097872,6.39319149 C12.6229787,6.39319149 12.8684255,6.14774468 12.8684255,5.83455319 C12.8684255,5.5213617 12.6229787,5.27676596 12.3097872,5.27676596 L10.866383,5.27676596 C10.5531915,5.27676596 10.3079149,5.5213617 10.3079149,5.83455319 C10.3079149,6.14774468 10.5531915,6.39319149 10.866383,6.39319149 Z" id="Fill-4" fill="#000000"></path>
            </g>
            <path d="M89.7347368,3.99578947 L89.7347368,1.47157895 L86.3673684,4.83894737 L89.7347368,8.20631579 L89.7347368,5.68210526 C92.5147368,5.68210526 94.7884211,7.95578947 94.7884211,10.7357895 C94.7884211,11.5789474 94.5378947,12.4168421 94.2010526,13.0915789 L95.4631579,14.3536842 C96.0505263,13.26 96.4747368,12.08 96.4747368,10.7357895 C96.4747368,7.03052632 93.4442105,3.99578947 89.7347368,3.99578947 Z M89.7347368,15.7894737 C86.96,15.7894737 84.6863158,13.5147368 84.6863158,10.7357895 C84.6863158,9.89263158 84.9368421,9.04947368 85.2736842,8.37578947 L84.0115789,7.11263158 C83.4189474,8.20631579 83,9.38736842 83,10.7357895 C83,14.44 86.0305263,17.4705263 89.7347368,17.4705263 L89.7347368,20 L93.1073684,16.6273684 L89.7347368,13.26 L89.7347368,15.7894737 Z" id="refresh-button" fill="#000000"></path>
            <g id="Group-6-Copy" transform="translate(92.000000, 30.000000) rotate(45.000000) translate(-92.000000, -30.000000) translate(87.000000, 25.000000)" fill="#FFFFFF">
                <rect id="Rectangle-8" x="0" y="0" width="1" height="10" rx="0.5"></rect>
                <rect id="Rectangle-9" x="0" y="9.33333333" width="10" height="1" rx="0.5"></rect>
            </g>
            <g id="Group-6-Copy-3" transform="translate(88.000000, 50.000000) scale(-1, 1) rotate(45.000000) translate(-88.000000, -50.000000) translate(83.000000, 45.000000)" fill="#FFFFFF">
                <rect id="Rectangle-8" x="0" y="0" width="1" height="10" rx="0.5"></rect>
                <rect id="Rectangle-9" x="0" y="9.33333333" width="10" height="1" rx="0.5"></rect>
            </g>
        </g>
    </g>
</svg>