<?xml version="1.0" encoding="UTF-8" standalone="no"?>
<svg width="15px" height="15px" viewBox="0 0 15 15" version="1.1" xmlns="http://www.w3.org/2000/svg" xmlns:xlink="http://www.w3.org/1999/xlink">
    <!-- Generator: Sketch 47.1 (45422) - http://www.bohemiancoding.com/sketch -->
    <title>Group 3</title>
    <desc>Created with Sketch.</desc>
    <defs></defs>
    <g id="Page-1" stroke="none" stroke-width="1" fill="none" fill-rule="evenodd">
        <g id="dimumner" transform="translate(-1138.000000, -264.000000)" fill="#979797">
            <g id="Group-3" transform="translate(1138.000000, 264.000000)">
                <path d="M7.5,15 C3.35786438,15 0,11.6421356 0,7.5 C0,3.35786438 3.35786438,0 7.5,0 C11.6421356,0 15,3.35786438 15,7.5 C15,11.6421356 11.6421356,15 7.5,15 Z M7.5,14 C11.0898509,14 14,11.0898509 14,7.5 C14,3.91014913 11.0898509,1 7.5,1 C3.91014913,1 1,3.91014913 1,7.5 C1,11.0898509 3.91014913,14 7.5,14 Z" id="Combined-Shape"></path>
                <path d="M8,7 L8,4 L7,4 L7,7 L4,7 L4,8 L7,8 L7,11 L8,11 L8,8 L11,8 L11,7 L8,7 Z" id="Combined-Shape"></path>
            </g>
        </g>
    </g>
</svg>