<?xml version="1.0" encoding="UTF-8" standalone="no"?>
<svg width="512px" height="432px" viewBox="0 0 512 432" version="1.1" xmlns="http://www.w3.org/2000/svg" xmlns:xlink="http://www.w3.org/1999/xlink">
    <!-- Generator: Sketch 47.1 (45422) - http://www.bohemiancoding.com/sketch -->
    <title>login</title>
    <desc>Created with Sketch.</desc>
    <defs></defs>
    <g id="Page-1" stroke="none" stroke-width="1" fill="none" fill-rule="evenodd">
        <g id="login" fill-rule="nonzero" fill="#FFFFFF">
            <path d="M379.955,229.328 C380.184,228.987 380.382,228.632 380.59,228.282 C380.782,227.96 380.984,227.648 381.16,227.317 C381.354,226.955 381.517,226.586 381.69,226.218 C381.852,225.876 382.023,225.54 382.167,225.189 C382.317,224.829 382.437,224.461 382.567,224.096 C382.701,223.723 382.845,223.355 382.961,222.973 C383.073,222.603 383.155,222.229 383.249,221.855 C383.347,221.469 383.454,221.089 383.532,220.695 C383.618,220.258 383.671,219.82 383.734,219.38 C383.78,219.044 383.844,218.714 383.878,218.374 C384.035,216.796 384.035,215.208 383.878,213.63 C383.844,213.289 383.78,212.958 383.732,212.62 C383.671,212.183 383.618,211.743 383.532,211.31 C383.454,210.915 383.346,210.534 383.247,210.145 C383.154,209.774 383.073,209.401 382.961,209.033 C382.846,208.649 382.7,208.278 382.566,207.902 C382.436,207.54 382.318,207.176 382.169,206.819 C382.022,206.464 381.849,206.125 381.686,205.779 C381.515,205.416 381.353,205.049 381.163,204.693 C380.984,204.357 380.777,204.037 380.584,203.711 C380.378,203.367 380.182,203.017 379.957,202.681 C379.712,202.313 379.437,201.966 379.171,201.614 C378.966,201.342 378.777,201.062 378.561,200.796 C378.055,200.182 377.524,199.59 376.961,199.028 L304.967,127.033 C295.597,117.66 280.401,117.66 271.026,127.033 C261.653,136.406 261.653,151.601 271.026,160.974 L302.058,192.006 L24,192.006 C10.746,192.006 0,202.75 0,216.006 C0,229.26 10.746,240.006 24,240.006 L302.054,240.006 L271.025,271.035 C261.652,280.408 261.652,295.603 271.025,304.976 C275.711,309.662 281.854,312.006 287.995,312.006 C294.137,312.006 300.28,309.664 304.965,304.976 L376.962,232.981 C377.522,232.421 378.053,231.831 378.556,231.216 C378.782,230.944 378.975,230.656 379.185,230.378 C379.445,230.027 379.714,229.688 379.955,229.328 Z" id="Shape"></path>
            <path d="M488,432 L184,432 C170.746,432 160,421.254 160,408 L160,311.998 C160,298.742 170.746,287.998 184,287.998 C197.254,287.998 208,298.742 208,311.998 L208,384 L464,384 L464,48 L208,48 L208,120 C208,133.254 197.254,144 184,144 C170.746,144 160,133.254 160,120 L160,24 C160,10.744 170.746,0 184,0 L488,0 C501.254,0 512,10.744 512,24 L512,408 C512,421.256 501.254,432 488,432 Z" id="Shape"></path>
        </g>
    </g>
</svg>